<?xml version="1.0" encoding="utf-8"?>
<!-- Generator: Adobe Illustrator 19.0.0, SVG Export Plug-In . SVG Version: 6.00 Build 0)  -->
<svg version="1.1" id="Layer_1" xmlns="http://www.w3.org/2000/svg" xmlns:xlink="http://www.w3.org/1999/xlink" x="0px" y="0px"
	 viewBox="0 0 500 500" style="enable-background:new 0 0 500 500;" xml:space="preserve">
<style type="text/css">
	.st0{fill:url(#XMLID_21_);}
	.st1{fill:#FFFFFF;}
</style>
<g id="XMLID_1_">
	
		<linearGradient id="XMLID_21_" gradientUnits="userSpaceOnUse" x1="0.1654" y1="-0.1249" x2="1.0699" y2="-0.1249" gradientTransform="matrix(-3.3086 405 -405 -3.3086 201.5171 -0.5078)">
		<stop  offset="0" style="stop-color:#BB3119"/>
		<stop  offset="1" style="stop-color:#812112"/>
	</linearGradient>
	<path id="XMLID_3_" class="st0" d="M76,74.3c0,0,11.3,11.6,24.9-2.3l2.1,4l9.8,0.5l2.3,1.8l1.4-3.7l1.4,0.2l2.5,3.4l1.8-2.1
		l4.1,0.2l2.5,2.7l1.6-1.6l16.4,0.5l3.9-2.3l0.5,2.3l7.3,0.9l3-4.1c0,0,4.3,6.2,12.1,6.6c7.8,0.5,23.3-0.5,23.3-0.5s4.6,4.3,6.2,0
		c1.6-4.3,0-2.7,0-2.7l6.4-0.2c0,0,2.1,1.1,4.1-7.8l2.3,4.8l1.1-5l7.1,0.7c0,0,3.2,2.5,5.5-3.2c0,0,17.4,7.3,24.9,0.2
		c0,0,4.8,4.1,12.8,3.4c8-0.7,21,6.2,21.2,16.4c0,0,3-2.5,15.1-2.3c-0.2-1.6,6.6-7.1,0-11.4c0,0,5.5-5,69.7,1.8c0,0,3.4-0.2,0.7-4.8
		c-2.7-4.6,4.3-2.5,2.7-2.7c0,0,2.1,14.2,9.8,5.5c0,0,17.8,8.5,18,0.7l3.4,2.1l9.8,0.2c0,0-1.1,4.8,10.1,7.1c0,0,4.1,18.5-1.4,21.5
		c0,0,6.9,32.7,2.1,89.8l-10.5,0.2l4.1,10.5c0,0-10.5,3.2-4.8,13.2c0,0,5.5-2.3,1.6,1.6c0,0-0.9,4.1,5,5.3c0,0-3.4,14.2,3.7,13.7
		c0,0-5.5,12.8-1.4,15.8c0,0-3.2,5.9-2.1,16.4c0,0-1.6,1.8-4.6-0.7c0,0-5.9,5.3,9.6,3.7l1.4,147.8c0,0-29.2-16.9-40.4-5.7l13.7,1.1
		l-0.9,1.8l-5.9,0.2c0,0,0.2,6.6-4.3,0.5c0,0-11,10.3-31.3,0.2c0,0-9.8,4.1-17.8-2.1c0,0-5.5-1.1-6.6,4.3c0,0-8.7-1.6-20.8,2.1
		l0.9-3.2h-1.6l-0.2,3.9c0,0-1.8,1.6-4.3,0.7l1.6-5.5c0,0-3.7-1.1-5,2.3l3-0.7l-0.9,3.9c0,0-7.1,7.1-15.8,1.4l8.9-0.7
		c0,0,1.6-1.1,1.4-2.7c0,0-34.9-0.5-33.8,2.3l2.7,2.1c0,0-11.6,4.3-16.9,0.7l-0.2-3.4l-1.8,0.2l-3,4.3c0,0-5-8.9-20.6-3.9l1.1,3.9
		c0,0-5.5-0.5-7.5,2.1l-8.7-14.2c0,0-12.8,5.9-19.2-0.9c0,0-1.1,0.2-1.6,3.4c0,0-5.3-0.2-7.8-8.2c0,0-4.1,1.1-2.5,8.2
		c0,0-4.3-4.8-4.6-7.5l-3.2,3.4l2.3,2.7l-1.1,1.4c0,0-4.8-5-6.9-3.9l0.2,3l-2.1,0.7l-2.7-4.1c0,0-3,1.6-3.2,3.9l-1.1-1.6l-1.6,1.1
		h-2.1c0,0-0.7-4.6-1.8-5.3l-1.1,3h-4.1v-2.7l-3.9,2.7c0,0-4.6-0.7-5.5,3.7l-2.5-1.1c0,0,0.5-4.8-1.4-6.9c0,0-2.5-1.1-3,4.8
		c0,0-3,1.1-3.9-3.2h-2.1l0.5,5.7c0,0-1.1-4.1-10.5-3c0,0-10.7,0.7-12.1-3l-0.9,5.7c0,0-0.7-5-10.7-0.5l-2.3-0.2l0.2-3h-1.4l-0.9,5
		l-2.3-0.5c0,0,2.3-3.9-0.2-4.8c0,0-3.7,0.9-4.1,4.6l-2.3-1.1l0.2-5l-10.5-1.6c0,0,6.9-12.3,1.8-53c0,0,0.2-14.2,2.5-17.8l5.5-0.2
		l1.6-38.8l-7.1-1.1c0,0-3.2-14.4-1.4-46.8c0,0,1.1-0.7,4.3,2.1l0.9-1.6l-3.2-1.8l0.2-3.4l6.2,3.4l0.5-13.7c0,0-12.6-5.7-4.6-26
		c0,0-11.2-35.2-3.4-117.2l-2.1-1.1c0,0-0.7,5.5-4.1,0.2l0.7-18.5l4.1,0.5l-0.5,1.4l-1.6,0.5l0.7,8.5l1.4,0.2L76,74.3z"/>
	<path id="XMLID_4_" class="st1" d="M111.9,141l87.7,93.6c0,0,6.6-0.9,8.7,4.3c2.1,5.3-1.4,0.7-1.4,0.7l-2.7-2.1l35.4,38.4
		c0,0-4.3-11.9,1.4-1.1c5.7,10.7,14.8,18.5,14.8,18.5l1.4-2.1l-5.3-5.9c0,0-3.9-4.6,1.6-1.6l6.9,8.9c0,0-1.6,5,3.7,9.4l-1.1-3.7
		c0,0,4.6,2.5,8.5,10.3l-0.2-3l3.9,3.7l-1.6,2.1l36.5,39.1c0,0,8.5,20.1,54.1,17.1c0,0,21.7-27.6,23.5-69l-30.2-20.3l-17.6-1.6
		l0.2-3l6.6,2.7l2.3,0.2l-3.9-3.2l1.8-2.1l-145-98.7c0,0-9.1,0.5-8.7-5.5l-3.7-0.2l-2.1-2.1l-2.1,1.6l-1.1-1.1l1.4-2.3L180,160
		l2.7,3.4l-1.4,0.7l-5.9-5.9l1.4-1.6l-27-19C149.8,137.6,137.5,124.4,111.9,141L111.9,141z"/>
	<path id="XMLID_5_" class="st1" d="M139.7,287.2l71.3,68.9l-50.5,16.2l-3.1-1.9c0,0-1,4.3-5.6,1.3c0,0,1.9,3.3,4-2.4
		c0,0-0.8-1.8-1.9,0l-0.8,1.7l-0.2-3.3l-2.1,1.4l-1.6-0.2l-0.3,3l-30.2-22.4c0,0-4.3-1.6-0.9-12C121.2,327,139.7,287.2,139.7,287.2z
		"/>
	<path id="XMLID_6_" class="st1" d="M354.7,198.7l7.3-46.9l-2.1,0.1l0.2,1.8c0,0-0.9,4-1.8,0.5c-0.9-3.5,1.1-4.6,1.1-4.6l2.4,0.7
		l0.1-1.5l-15.9-11.6c0,0-5.6-4.2-16.7-0.7c-11.1,3.5-45.5,12.2-45.5,12.2l60,46l0.8-1.6l-2.9-1.4c0,0-1.9-2.4,1.7-2.3
		c3.7,0.1,2.7,7,2.7,7h3.4l1.9,2.5L354.7,198.7z"/>
</g>
</svg>
